#!OML:ASF C:\ViconDB\ViconDB\414\Spring2016\041811\Spring2016.ASF
:FULLY-SPECIFIED
:DEGREES
183
root 10.6102 17.9317 -11.1652 -179.229 3.17828 -175.639
lowerback 0.583956 2.80463 2.34668
upperback 2.05094 3.78944 1.30435
thorax 1.83914 1.95293 0.0682463
lowerneck -9.77692 -4.22999 -10.1187
upperneck 15.1986 -7.72364 15.8972
head 7.25493 -3.39693 6.15594
rclavicle -2.92462e-014 5.01931e-015
rhumerus -32.887 -14.6735 -83.6183
rradius 35.5015
rwrist 38.3142
rhand -35.065 -14.4728
rfingers 7.12502
rthumb -8.20749 -44.2934
lclavicle -2.92462e-014 5.01931e-015
lhumerus -44.0568 1.96897 89.6416
lradius 26.355
lwrist -29.2906
lhand -26.2635 15.3918
lfingers 7.12502
lthumb 0.291241 45.3713
rfemur 148.508 37.9658 -175.001
rtibia 17.2506
rfoot -47.6168 -45.6176
rtoes 4.13472e-014
lfemur -29.4344 -5.18552 -12.26
ltibia 30.0863
lfoot -8.46483 7.29535
ltoes -4.6118e-014
184
root 10.5879 17.9304 -11.353 -179.148 2.95779 -176.01
lowerback 0.361672 2.6992 1.75196
upperback 1.98244 3.63666 1.1998
thorax 1.86006 1.86263 0.298448
lowerneck -9.83691 -4.23321 -10.3799
upperneck 15.3338 -7.82819 16.3638
head 7.3535 -3.43807 6.35387
rclavicle 2.00151e-014 1.09332e-015
rhumerus -33.4944 -15.0334 -83.4039
rradius 35.497
rwrist 38.7772
rhand -35.392 -14.7036
rfingers 7.12502
rthumb -8.52309 -44.5116
lclavicle 2.00151e-014 1.09332e-015
lhumerus -43.9148 1.75206 89.8654
lradius 26.2622
lwrist -28.7255
lhand -26.3516 15.4267
lfingers 7.12502
lthumb 0.206201 45.4063
rfemur 148.807 36.1721 -175.032
rtibia 16.5741
rfoot -45.0906 -46.5449
rtoes -1.33583e-013
lfemur -29.3681 -4.85831 -12.9918
ltibia 30.7521
lfoot -8.65906 6.92136
ltoes 4.69132e-014
185
root 10.5664 17.932 -11.5414 -179.043 2.75227 -176.339
lowerback 0.0925793 2.60475 1.25233
upperback 1.86224 3.49883 1.01576
thorax 1.86762 1.78088 0.395577
lowerneck -9.83255 -4.13414 -10.0019
upperneck 15.647 -7.80324 16.2072
head 7.42765 -3.42254 6.2415
rclavicle -8.89561e-015 -1.73937e-014
rhumerus -34.3021 -15.5023 -83.2545
rradius 35.5832
rwrist 38.7035
rhand -35.5719 -14.4136
rfingers 7.12502
rthumb -8.69665 -44.2144
lclavicle -8.89561e-015 -1.73937e-014
lhumerus -43.4129 2.01304 89.6951
lradius 25.6194
lwrist -29.0486
lhand -26.4556 15.3842
lfingers 7.12502
lthumb 0.105738 45.3639
rfemur 149.081 34.1933 -174.879
rtibia 16.1304
rfoot -42.102 -47.6452
rtoes 6.36111e-015
lfemur -29.2775 -4.53925 -13.6656
ltibia 31.4541
lfoot -8.92617 6.58082
ltoes -5.24792e-014
186
root 10.5456 17.9326 -11.7227 -179.02 2.44075 -176.479
lowerback 0.0707009 2.56121 0.997904
upperback 1.71084 3.43692 0.869653
thorax 1.71813 1.74258 0.38269
lowerneck -9.76316 -4.12973 -9.81538
upperneck 15.9035 -7.92803 16.2657
head 7.51039 -3.48112 6.2205
rclavicle 7.04443e-015 9.54166e-015
rhumerus -35.1891 -16.1316 -83.0376
rradius 35.5603
rwrist 38.8231
rhand -35.7665 -14.4914
rfingers 7.12502
rthumb -8.88448 -44.2844
lclavicle 7.04443e-015 9.54166e-015
lhumerus -43.1607 1.74158 89.7047
lradius 25.2127
lwrist -29.6054
lhand -26.5437 15.6287
lfingers 7.12502
lthumb 0.0206039 45.6084
rfemur 148.9 32.4633 -174.612
rtibia 16.2041
rfoot -38.8975 -49.407
rtoes -2.8625e-014
lfemur -29.2685 -4.25141 -14.0942
ltibia 32.3048
lfoot -9.10885 5.86354
ltoes 5.4467e-014
187
root 10.5287 17.9276 -11.8996 -179.047 2.15499 -176.411
lowerback 0.188968 2.47189 0.849474
upperback 1.54296 3.31724 0.862039
thorax 1.47133 1.67806 0.444416
lowerneck -9.72325 -4.00898 -9.51868
upperneck 16.2249 -7.85708 16.1012
head 7.57711 -3.44845 6.12578
rclavicle 8.48562e-015 -2.98177e-015
rhumerus -36.1677 -16.5401 -82.7574
rradius 35.6635
rwrist 38.5918
rhand -35.8084 -14.4893
rfingers 7.12502
rthumb -8.92493 -44.2806
lclavicle 8.48562e-015 -2.98177e-015
lhumerus -42.786 1.86895 89.5816
lradius 24.669
lwrist -30.288
lhand -27.0313 15.5989
lfingers 7.12502
lthumb -0.450294 45.5781
rfemur 148.51 30.5806 -174.037
rtibia 16.668
rfoot -35.5072 -51.4113
rtoes 3.18055e-015
lfemur -29.1447 -3.58337 -14.3838
ltibia 33.1497
lfoot -9.3133 4.74259
ltoes -8.34896e-014
188
root 10.5063 17.9 -12.0745 -179.191 1.91665 -176.505
lowerback 0.249449 2.35934 0.548222
upperback 1.50541 3.16754 0.77258
thorax 1.38769 1.59855 0.514891
lowerneck -9.73631 -3.99454 -9.3633
upperneck 16.5113 -8.00787 16.3032
head 7.69622 -3.51135 6.15669
rclavicle -1.41386e-014 -9.74045e-015
rhumerus -36.9464 -16.9838 -82.6438
rradius 35.7092
rwrist 38.5944
rhand -35.5727 -14.9458
rfingers 7.12502
rthumb -8.69747 -44.7466
lclavicle -1.41386e-014 -9.74045e-015
lhumerus -42.3413 1.88125 89.518
lradius 24.3438
lwrist -30.2037
lhand -26.9613 15.63
lfingers 7.12502
lthumb -0.382744 45.6094
rfemur 147.547 29.025 -173.92
rtibia 17.7112
rfoot -32.6589 -54.0394
rtoes 2.03555e-013
lfemur -28.9402 -3.23249 -14.7673
ltibia 34.0151
lfoot -9.79115 3.9154
ltoes -6.16232e-014
189
root 10.4775 17.9027 -12.2475 -179.187 1.70278 -176.648
lowerback 0.214761 2.27276 0.333521
upperback 1.44283 3.05014 0.650399
thorax 1.33888 1.53614 0.50824
lowerneck -9.91918 -3.98471 -9.26117
upperneck 16.8991 -8.14626 16.4624
head 7.87914 -3.56125 6.18429
rclavicle 1.2921e-014 3.97569e-016
rhumerus -37.702 -17.5431 -82.4211
rradius 35.6312
rwrist 38.9602
rhand -35.4194 -15.0397
rfingers 7.12502
rthumb -8.5495 -44.8467
lclavicle 1.2921e-014 3.97569e-016
lhumerus -41.8221 2.02751 89.3927
lradius 23.8278
lwrist -31.1152
lhand -27.1701 15.8128
lfingers 7.12502
lthumb -0.584374 45.7917
rfemur 146.394 27.7672 -173.852
rtibia 19.4289
rfoot -29.94 -57.3092
rtoes -4.13472e-014
lfemur -28.771 -3.1764 -15.1187
ltibia 34.7166
lfoot -10.5027 3.43344
ltoes -3.22031e-014
190
root 10.4568 17.8995 -12.4147 -179.336 1.52117 -176.572
lowerback 0.314614 2.22921 0.317357
upperback 1.44635 2.99339 0.576409
thorax 1.28996 1.50805 0.436835
lowerneck -9.96268 -3.91506 -9.03772
upperneck 17.102 -8.1967 16.6157
head 7.959 -3.57033 6.19592
rclavicle 3.27995e-015 -8.74653e-015
rhumerus -38.3672 -18.2951 -82.1273
rradius 35.4886
rwrist 39.0234
rhand -35.4258 -14.5769
rfingers 7.12502
rthumb -8.55566 -44.3836
lclavicle 3.27995e-015 -8.74653e-015
lhumerus -41.2175 2.02962 89.2564
lradius 23.5313
lwrist -31.3828
lhand -26.9784 15.8859
lfingers 7.12502
lthumb -0.399185 45.8652
rfemur 144.701 26.3715 -173.527
rtibia 21.9013
rfoot -26.5632 -60.6548
rtoes 4.67542e-013
lfemur -28.2404 -3.09441 -15.2545
ltibia 35.2172
lfoot -11.2208 3.03094
ltoes -4.09496e-014
191
root 10.4357 17.9082 -12.5829 -179.434 1.41892 -176.777
lowerback 0.432499 2.16748 -0.0466648
upperback 1.38439 2.91118 0.455444
thorax 1.14896 1.46258 0.508626
lowerneck -9.91145 -3.82195 -8.81622
upperneck 17.2525 -8.18254 16.6732
head 7.9903 -3.5585 6.18179
rclavicle 3.72721e-016 -9.54166e-015
rhumerus -38.9635 -18.9334 -81.8772
rradius 35.1796
rwrist 39.3773
rhand -35.0225 -14.4558
rfingers 7.12502
rthumb -8.16644 -44.278
lclavicle 3.72721e-016 -9.54166e-015
lhumerus -40.6931 1.95679 89.2742
lradius 23.2219
lwrist -31.2984
lhand -27.243 16.1147
lfingers 7.12502
lthumb -0.654811 46.0934
rfemur 142.821 25.2905 -173.605
rtibia 24.7911
rfoot -22.7081 -64.0921
rtoes 1.74931e-013
lfemur -27.5968 -2.98145 -15.6816
ltibia 35.4012
lfoot -11.8559 2.70741
ltoes -6.36111e-015
192
root 10.405 17.9275 -12.7429 -179.386 1.42417 -177.359
lowerback 0.405942 2.1268 -0.619247
upperback 1.33698 2.85802 0.155847
thorax 1.10317 1.4305 0.521296
lowerneck -9.97491 -3.83887 -8.85212
upperneck 17.3927 -8.37999 17.1169
head 8.09928 -3.63763 6.32338
rclavicle -9.0944e-015 6.75868e-015
rhumerus -39.4501 -19.3202 -81.8847
rradius 35.008
rwrist 38.9303
rhand -34.9149 -14.4527
rfingers 7.12502
rthumb -8.06268 -44.2789
lclavicle -9.0944e-015 6.75868e-015
lhumerus -40.1395 1.81154 89.1851
lradius 23.0642
lwrist -31.3081
lhand -27.4525 16.1356
lfingers 7.12502
lthumb -0.857095 46.1136
rfemur 140.846 24.4791 -174.165
rtibia 28.1413
rfoot -18.0322 -67.5323
rtoes 4.13472e-014
lfemur -26.9719 -2.74429 -16.5651
ltibia 35.3274
lfoot -12.3929 2.43935
ltoes -4.01545e-014
193
root 10.3836 17.9568 -12.8981 -179.435 1.43655 -177.887
lowerback 0.614737 2.0825 -1.34253
upperback 1.23815 2.79765 -0.0144651
thorax 0.860093 1.39575 0.739064
lowerneck -10.081 -4.06531 -9.28558
upperneck 17.7054 -8.89718 17.7334
head 8.34901 -3.88183 6.56487
rclavicle -7.20594e-016 1.82882e-014
rhumerus -40.1091 -19.7686 -81.6324
rradius 34.7726
rwrist 39.3036
rhand -34.8442 -14.2744
rfingers 7.12502
rthumb -7.99437 -44.1032
lclavicle -7.20594e-016 1.82882e-014
lhumerus -39.7311 1.31894 89.4327
lradius 23.0909
lwrist -30.9535
lhand -27.5413 16.4128
lfingers 7.12502
lthumb -0.942925 46.3905
rfemur 138.735 23.6148 -174.607
rtibia 31.7578
rfoot -11.9018 -70.7442
rtoes 2.29e-013
lfemur -26.1577 -2.78904 -17.2576
ltibia 35.015
lfoot -12.8906 2.41588
ltoes -1.23644e-013
194
root 10.3691 17.986 -13.0518 -179.528 1.41091 -178.185
lowerback 0.932302 2.02362 -1.82769
upperback 1.11427 2.71196 -0.164012
thorax 0.54241 1.35323 0.841168
lowerneck -10.069 -4.07156 -9.31708
upperneck 17.8689 -9.09011 18.1184
head 8.4525 -3.96844 6.68893
rclavicle 1.33931e-014 -1.19271e-015
rhumerus -40.7691 -20.4615 -81.3632
rradius 34.4417
rwrist 40.2148
rhand -34.8287 -14.4811
rfingers 7.12502
rthumb -7.97944 -44.3105
lclavicle 1.33931e-014 -1.19271e-015
lhumerus -39.2744 1.24998 89.2442
lradius 23.0049
lwrist -31.4999
lhand -27.4009 16.4085
lfingers 7.12502
lthumb -0.807337 46.3867
rfemur 136.579 22.9322 -174.818
rtibia 35.4732
rfoot -4.78198 -73.4709
rtoes 2.54444e-014
lfemur -25.1896 -2.22184 -17.7544
ltibia 34.4746
lfoot -13.1683 1.80823
ltoes -3.65764e-014
195
root 10.3534 18.0122 -13.1981 -179.628 1.40762 -178.791
lowerback 1.19453 1.93381 -2.64248
upperback 1.09191 2.5861 -0.346712
thorax 0.349548 1.29049 1.09921
lowerneck -10.0819 -4.01304 -9.3135
upperneck 17.9046 -9.05906 18.2344
head 8.46759 -3.95096 6.73452
rclavicle -4.82053e-015 2.38542e-014
rhumerus -41.113 -20.567 -81.3609
rradius 34.162
rwrist 40.1761
rhand -34.8287 -14.098
rfingers 7.12502
rthumb -7.97947 -43.9274
lclavicle -4.82053e-015 2.38542e-014
lhumerus -38.8341 1.01498 89.2972
lradius 23.3398
lwrist -30.9188
lhand -27.3658 16.4
lfingers 7.12502
lthumb -0.773362 46.3783
rfemur 134.573 22.4681 -175.44
rtibia 39.0908
rfoot 4.25856 -75.4129
rtoes -2.22639e-014
lfemur -24.1186 -1.93886 -18.5755
ltibia 33.7818
lfoot -13.4221 1.49794
ltoes -1.11319e-014
196
root 10.3374 18.046 -13.3475 -179.865 1.43754 -179.449
lowerback 1.57593 1.86608 -3.49541
upperback 1.09494 2.48322 -0.537051
thorax 0.116732 1.24268 1.36754
lowerneck -10.0897 -3.91244 -9.11118
upperneck 17.9735 -8.94686 18.1247
head 8.45956 -3.894 6.67363
rclavicle 3.16813e-014 1.03368e-014
rhumerus -41.5983 -20.931 -81.2292
rradius 34.0401
rwrist 40.6909
rhand -34.5369 -13.9989
rfingers 7.12502
rthumb -7.6978 -43.8388
lclavicle 3.16813e-014 1.03368e-014
lhumerus -38.3974 0.715077 89.3391
lradius 23.3881
lwrist -31.7401
lhand -27.8904 16.6356
lfingers 7.12502
lthumb -1.28005 46.6115
rfemur 132.683 22.0163 -176.166
rtibia 42.5084
rfoot 11.7088 -76.6546
rtoes 5.40694e-014
lfemur -22.7671 -1.51013 -19.4398
ltibia 32.8816
lfoot -13.7117 1.1346
ltoes -7.59357e-014
